<svg width="120" height="120" viewBox="0 0 120 120" xmlns="http://www.w3.org/2000/svg">
  <defs>
    <linearGradient id="logoGradient" x1="0%" y1="0%" x2="100%" y2="100%">
      <stop offset="0%" style="stop-color:#00d4ff;stop-opacity:1" />
      <stop offset="50%" style="stop-color:#00b8e6;stop-opacity:1" />
      <stop offset="100%" style="stop-color:#0099cc;stop-opacity:1" />
    </linearGradient>
    <filter id="glow">
      <feGaussianBlur stdDeviation="3" result="coloredBlur"/>
      <feMerge> 
        <feMergeNode in="coloredBlur"/>
        <feMergeNode in="SourceGraphic"/>
      </feMerge>
    </filter>
  </defs>
  
  <!-- Background circle -->
  <circle cx="60" cy="60" r="55" fill="url(#logoGradient)" filter="url(#glow)"/>
  
  <!-- Letter B -->
  <path d="M 25 20 L 25 100 L 45 100 Q 65 100 65 80 L 65 70 Q 65 50 45 50 L 35 50 L 35 20 Z M 35 60 L 45 60 Q 55 60 55 70 L 55 80 Q 55 90 45 90 L 35 90 Z" 
        fill="#1a1a1a" stroke="#1a1a1a" stroke-width="2"/>
  
  <!-- Decorative elements -->
  <circle cx="85" cy="35" r="3" fill="#00d4ff" opacity="0.8"/>
  <circle cx="90" cy="85" r="2" fill="#00d4ff" opacity="0.6"/>
  <circle cx="75" cy="95" r="2.5" fill="#00d4ff" opacity="0.7"/>
  
  <!-- Animated elements -->
  <g class="animated-elements">
    <path d="M 20 30 Q 30 25 40 30" stroke="#00d4ff" stroke-width="1" fill="none" opacity="0.6"/>
    <path d="M 80 70 Q 90 65 100 70" stroke="#00d4ff" stroke-width="1" fill="none" opacity="0.6"/>
  </g>
</svg> 